<svg width="114" height="114" viewBox="0 0 114 114" fill="none" xmlns="http://www.w3.org/2000/svg">
<g filter="url(#filter0_d_604_2090)">
<circle cx="57" cy="57" r="23" fill="white"/>
</g>
<path d="M50.3999 62.4C50.8773 62.4 51.3351 62.2104 51.6727 61.8728C52.0103 61.5352 52.1999 61.0774 52.1999 60.6V55.8C52.2 55.3288 52.0153 54.8763 51.6855 54.5398C51.3557 54.2032 50.907 54.0094 50.4359 54C50.5834 52.6804 51.212 51.4614 52.2015 50.5759C53.191 49.6905 54.4721 49.2006 55.7999 49.2H58.1999C59.5277 49.2006 60.8088 49.6905 61.7983 50.5759C62.7878 51.4614 63.4164 52.6804 63.5639 54C63.0928 54.0094 62.6441 54.2032 62.3143 54.5398C61.9845 54.8763 61.7998 55.3288 61.7999 55.8V60.6C61.7991 61.0593 61.9738 61.5015 62.2884 61.8361C62.6029 62.1707 63.0335 62.3724 63.4919 62.4C63.3681 62.7501 63.1391 63.0534 62.8361 63.2682C62.5332 63.4831 62.1713 63.599 61.7999 63.6H59.2919C59.1504 63.1997 58.8719 62.8623 58.5056 62.6474C58.1394 62.4326 57.709 62.3541 57.2905 62.4259C56.872 62.4977 56.4923 62.7152 56.2186 63.0398C55.945 63.3644 55.7948 63.7754 55.7948 64.2C55.7948 64.6246 55.945 65.0356 56.2186 65.3602C56.4923 65.6848 56.872 65.9023 57.2905 65.9741C57.709 66.0459 58.1394 65.9674 58.5056 65.7526C58.8719 65.5377 59.1504 65.2003 59.2919 64.8H61.7999C62.5298 64.7967 63.2335 64.5274 63.7791 64.0425C64.3247 63.5576 64.6749 62.8905 64.7639 62.166C65.3082 61.9369 65.7728 61.5522 66.0994 61.0601C66.426 60.5681 66.6001 59.9906 66.5999 59.4V57C66.6008 56.4155 66.4309 55.8435 66.1111 55.3542C65.7913 54.865 65.3356 54.4798 64.7999 54.246C64.7092 52.5576 63.974 50.9685 62.746 49.8063C61.5179 48.6441 59.8907 47.9976 58.1999 48H55.7999C54.1091 47.9976 52.4819 48.6441 51.2538 49.8063C50.0258 50.9685 49.2906 52.5576 49.1999 54.246C48.6642 54.4798 48.2085 54.865 47.8887 55.3542C47.5689 55.8435 47.399 56.4155 47.3999 57V59.4C47.3999 60.1956 47.716 60.9587 48.2786 61.5213C48.8412 62.0839 49.6043 62.4 50.3999 62.4ZM57.5999 64.8C57.4812 64.8 57.3652 64.7648 57.2666 64.6989C57.1679 64.633 57.091 64.5392 57.0456 64.4296C57.0002 64.32 56.9883 64.1993 57.0114 64.0829C57.0346 63.9666 57.0917 63.8596 57.1756 63.7757C57.2595 63.6918 57.3665 63.6347 57.4828 63.6115C57.5992 63.5884 57.7199 63.6003 57.8295 63.6457C57.9391 63.6911 58.0329 63.768 58.0988 63.8667C58.1647 63.9653 58.1999 64.0813 58.1999 64.2C58.1999 64.3591 58.1367 64.5117 58.0242 64.6243C57.9116 64.7368 57.759 64.8 57.5999 64.8ZM65.3999 57V59.4C65.3999 59.8774 65.2103 60.3352 64.8727 60.6728C64.5351 61.0104 64.0773 61.2 63.5999 61.2C63.4408 61.2 63.2882 61.1368 63.1756 61.0243C63.0631 60.9117 62.9999 60.7591 62.9999 60.6V55.8C62.9999 55.6409 63.0631 55.4883 63.1756 55.3757C63.2882 55.2632 63.4408 55.2 63.5999 55.2C64.0773 55.2 64.5351 55.3896 64.8727 55.7272C65.2103 56.0648 65.3999 56.5226 65.3999 57ZM48.5999 57C48.5999 56.5226 48.7895 56.0648 49.1271 55.7272C49.4647 55.3896 49.9225 55.2 50.3999 55.2C50.559 55.2 50.7116 55.2632 50.8242 55.3757C50.9367 55.4883 50.9999 55.6409 50.9999 55.8V60.6C50.9999 60.7591 50.9367 60.9117 50.8242 61.0243C50.7116 61.1368 50.559 61.2 50.3999 61.2C49.9225 61.2 49.4647 61.0104 49.1271 60.6728C48.7895 60.3352 48.5999 59.8774 48.5999 59.4V57Z" fill="url(#paint0_linear_604_2090)"/>
<defs>
<filter id="filter0_d_604_2090" x="0" y="0" width="114" height="114" filterUnits="userSpaceOnUse" color-interpolation-filters="sRGB">
<feFlood flood-opacity="0" result="BackgroundImageFix"/>
<feColorMatrix in="SourceAlpha" type="matrix" values="0 0 0 0 0 0 0 0 0 0 0 0 0 0 0 0 0 0 127 0" result="hardAlpha"/>
<feMorphology radius="4" operator="dilate" in="SourceAlpha" result="effect1_dropShadow_604_2090"/>
<feOffset/>
<feGaussianBlur stdDeviation="15"/>
<feComposite in2="hardAlpha" operator="out"/>
<feColorMatrix type="matrix" values="0 0 0 0 0.735625 0 0 0 0 0.784901 0 0 0 0 0.891667 0 0 0 0.4 0"/>
<feBlend mode="normal" in2="BackgroundImageFix" result="effect1_dropShadow_604_2090"/>
<feBlend mode="normal" in="SourceGraphic" in2="effect1_dropShadow_604_2090" result="shape"/>
</filter>
<linearGradient id="paint0_linear_604_2090" x1="48.9998" y1="49" x2="66.3332" y2="65.6667" gradientUnits="userSpaceOnUse">
<stop stop-color="#4140AA"/>
<stop offset="1" stop-color="#B753C7"/>
</linearGradient>
</defs>
</svg>


