<svg width="24" height="24" viewBox="0 0 24 24" fill="none" xmlns="http://www.w3.org/2000/svg">
<g id="customer service">
<path id="Vector" d="M5.3999 17.4C5.87729 17.4 6.33513 17.2104 6.6727 16.8728C7.01026 16.5352 7.1999 16.0774 7.1999 15.6V10.8C7.2 10.3288 7.0153 9.87632 6.68549 9.53977C6.35567 9.20322 5.90703 9.00943 5.4359 9C5.58344 7.68039 6.21201 6.4614 7.20151 5.57594C8.19101 4.69048 9.47207 4.20064 10.7999 4.20001H13.1999C14.5277 4.20064 15.8088 4.69048 16.7983 5.57594C17.7878 6.4614 18.4164 7.68039 18.5639 9C18.0928 9.00943 17.6441 9.20322 17.3143 9.53977C16.9845 9.87632 16.7998 10.3288 16.7999 10.8V15.6C16.7991 16.0593 16.9738 16.5015 17.2884 16.8361C17.6029 17.1707 18.0335 17.3724 18.4919 17.4C18.3681 17.7501 18.1391 18.0534 17.8361 18.2682C17.5332 18.4831 17.1713 18.599 16.7999 18.6H14.2919C14.1504 18.1997 13.8719 17.8623 13.5056 17.6474C13.1394 17.4326 12.709 17.3541 12.2905 17.4259C11.872 17.4977 11.4923 17.7152 11.2186 18.0398C10.945 18.3644 10.7948 18.7754 10.7948 19.2C10.7948 19.6246 10.945 20.0356 11.2186 20.3602C11.4923 20.6848 11.872 20.9023 12.2905 20.9741C12.709 21.0459 13.1394 20.9674 13.5056 20.7526C13.8719 20.5377 14.1504 20.2003 14.2919 19.8H16.7999C17.5298 19.7967 18.2335 19.5274 18.7791 19.0425C19.3247 18.5576 19.6749 17.8905 19.7639 17.166C20.3082 16.9369 20.7728 16.5522 21.0994 16.0601C21.426 15.5681 21.6001 14.9906 21.5999 14.4V12C21.6008 11.4155 21.4309 10.8435 21.1111 10.3542C20.7913 9.86499 20.3356 9.4798 19.7999 9.246C19.7092 7.55765 18.974 5.96849 17.746 4.80631C16.5179 3.64413 14.8907 2.99757 13.1999 3.00001H10.7999C9.10912 2.99757 7.48188 3.64413 6.25383 4.80631C5.02578 5.96849 4.29059 7.55765 4.1999 9.246C3.66421 9.4798 3.20848 9.86499 2.8887 10.3542C2.56893 10.8435 2.39904 11.4155 2.39991 12V14.4C2.39991 15.1956 2.71598 15.9587 3.27858 16.5213C3.84119 17.0839 4.60425 17.4 5.3999 17.4ZM12.5999 19.8C12.4812 19.8 12.3652 19.7648 12.2666 19.6989C12.1679 19.633 12.091 19.5392 12.0456 19.4296C12.0002 19.32 11.9883 19.1993 12.0114 19.0829C12.0346 18.9666 12.0917 18.8596 12.1756 18.7757C12.2595 18.6918 12.3665 18.6347 12.4828 18.6115C12.5992 18.5884 12.7199 18.6003 12.8295 18.6457C12.9391 18.6911 13.0329 18.768 13.0988 18.8667C13.1647 18.9653 13.1999 19.0813 13.1999 19.2C13.1999 19.3591 13.1367 19.5117 13.0242 19.6243C12.9116 19.7368 12.759 19.8 12.5999 19.8ZM20.3999 12V14.4C20.3999 14.8774 20.2103 15.3352 19.8727 15.6728C19.5351 16.0104 19.0773 16.2 18.5999 16.2C18.4408 16.2 18.2882 16.1368 18.1756 16.0243C18.0631 15.9117 17.9999 15.7591 17.9999 15.6V10.8C17.9999 10.6409 18.0631 10.4883 18.1756 10.3757C18.2882 10.2632 18.4408 10.2 18.5999 10.2C19.0773 10.2 19.5351 10.3896 19.8727 10.7272C20.2103 11.0648 20.3999 11.5226 20.3999 12ZM3.59991 12C3.59991 11.5226 3.78955 11.0648 4.12711 10.7272C4.46468 10.3896 4.92251 10.2 5.3999 10.2C5.55903 10.2 5.71165 10.2632 5.82417 10.3757C5.93669 10.4883 5.9999 10.6409 5.9999 10.8V15.6C5.9999 15.7591 5.93669 15.9117 5.82417 16.0243C5.71165 16.1368 5.55903 16.2 5.3999 16.2C4.92251 16.2 4.46468 16.0104 4.12711 15.6728C3.78955 15.3352 3.59991 14.8774 3.59991 14.4V12Z" fill="url(#paint0_linear_604_2092)"/>
</g>
<defs>
<linearGradient id="paint0_linear_604_2092" x1="3.99984" y1="4" x2="21.3332" y2="20.6667" gradientUnits="userSpaceOnUse">
<stop stop-color="#4140AA"/>
<stop offset="1" stop-color="#B753C7"/>
</linearGradient>
</defs>
</svg>
