<svg xmlns="http://www.w3.org/2000/svg" width="28" height="28" viewBox="0 0 20 20" fill="none">
<g clip-path="url(#clip0_604_2109)">
<path d="M10 20C15.5228 20 20 15.5228 20 10C20 4.47715 15.5228 0 10 0C4.47715 0 0 4.47715 0 10C0 15.5228 4.47715 20 10 20Z" fill="#C0C3F2"/>
<path fill-rule="evenodd" clip-rule="evenodd" d="M7.52588 12.5176L12.6738 12.5567V16.7373L7.52588 16.6982V12.5176Z" fill="#F9DCA4"/>
<path fill-rule="evenodd" clip-rule="evenodd" d="M14.2301 19.0631C12.9216 19.6725 11.4968 19.9921 10.0534 19.9999C8.60989 20.0077 7.18176 19.7036 5.8667 19.1084V15.6689H14.2298L14.2301 19.0631Z" fill="#E6E6E6"/>
<path fill-rule="evenodd" clip-rule="evenodd" d="M10.81 19.9681C10.5429 19.9894 10.2729 20.0002 9.99999 20.0004C9.79395 20.0004 9.58952 19.9943 9.38672 19.982L9.72005 17.0732H10.5L10.81 19.9681Z" fill="#E9573E"/>
<path fill-rule="evenodd" clip-rule="evenodd" d="M8.30335 19.8482C7.20078 19.6428 6.136 19.2705 5.14575 18.744C4.1946 18.2147 3.33583 17.5343 2.60303 16.7294L3.01856 15.7262L7.52503 13.7158C7.52503 15.4026 8.07875 18.0786 8.30335 19.8482Z" fill="#677079"/>
<path opacity="0.11" fill-rule="evenodd" clip-rule="evenodd" d="M12.6748 12.543V13.5886C11.1434 15.3773 8.21751 15.1242 7.56152 12.4844L12.6748 12.543Z" fill="black"/>
<path fill-rule="evenodd" clip-rule="evenodd" d="M10.074 2.72852C16.9611 2.72852 14.2769 14.1415 10.074 14.1415C6.10412 14.1415 3.18697 2.72852 10.074 2.72852Z" fill="#FFE8BE"/>
<path fill-rule="evenodd" clip-rule="evenodd" d="M5.94334 7.78157C4.94981 8.21491 5.79447 10.269 6.41972 10.2599C6.16037 9.45621 6.00039 8.62413 5.94334 7.78157ZM14.2848 7.78125C15.2783 8.21458 14.4336 10.269 13.8087 10.2596C14.0679 9.45596 14.2277 8.62368 14.2848 7.78125Z" fill="#F9DCA4"/>
<path fill-rule="evenodd" clip-rule="evenodd" d="M7.09754 4.63735C6.01857 5.75645 6.39819 8.85418 6.39819 8.85418L6.05838 8.69399C3.93734 0.475864 16.2959 0.47554 14.1629 8.69399L13.8231 8.85418C13.8231 8.85418 14.203 5.75645 13.1241 4.63735C11.7911 5.93023 8.42311 5.92344 7.09754 4.63735Z" fill="#464449"/>
<path fill-rule="evenodd" clip-rule="evenodd" d="M11.8987 19.8197C14.0855 19.3974 16.0685 18.2562 17.5323 16.5776L17.1796 15.7262L12.6734 13.7158C12.6734 15.4026 12.1233 18.0501 11.8987 19.8197Z" fill="#677079"/>
<path fill-rule="evenodd" clip-rule="evenodd" d="M12.6737 13.5859L10.1086 15.6782L12.2358 17.5918C12.2358 17.5918 12.8028 14.4513 12.6737 13.5859Z" fill="white"/>
<path fill-rule="evenodd" clip-rule="evenodd" d="M7.52531 13.5859L10.1108 15.6782L7.96026 17.5918C7.96026 17.5918 7.39521 14.4513 7.52531 13.5859Z" fill="white"/>
<path fill-rule="evenodd" clip-rule="evenodd" d="M9.09668 16.578L10.1119 15.666L11.1271 16.578L10.1119 17.4896L9.09668 16.578Z" fill="#E9573E"/>
<path fill-rule="evenodd" clip-rule="evenodd" d="M8.33887 19.8614C7.92563 19.7922 7.51716 19.6971 7.11589 19.5766C7.10332 19.5669 7.09101 19.5568 7.079 19.5465L5.93498 17.4785L7.40456 16.4235H5.8667L6.19583 14.2063L7.52592 13.3652C7.58353 15.7503 8.09518 18.4319 8.33887 19.8614ZM11.8593 19.8267C12.0495 19.795 12.2379 19.751 12.4246 19.7025C12.6452 19.6441 12.8646 19.5816 13.0829 19.5151L13.1262 19.5012L14.2625 17.4575L12.7929 16.4083H14.3308L14.0017 14.2021L12.6716 13.3652C12.6139 15.7381 12.1026 18.4044 11.8593 19.8267Z" fill="#434955"/>
</g>
<defs>
<clipPath id="clip0_604_2109">
<rect width="20" height="20" fill="white"/>
</clipPath>
</defs>
</svg>